Simulation
nRows=32
nColumns=15
endheader
time  TH_x TH_y TH_z SC_y  SC_z  SC_x  AC_y  AC_z  AC_x  GH_y  GH_z  GH_yy  EL_x  PS_y
0.0  0.000000  0.000000  0.000000  -29.109328738827926  -1.1032090511830284  12.889247014383413  56.23850444882504  -8.11208364033968  -13.632840274220218  20.635498733029937  11.867127068615153  3.416705756298726  25.691063493707595  0.000000
0.015  0.000000  0.000000  0.000000  -29.207125613782306  -0.9087678559295309  12.959261690083451  56.17190967121903  -7.788847684836267  -13.635360773700366  20.190952298505888  12.22196117681854  3.72221284324248  25.62873196942854  0.000000
0.03  0.000000  0.000000  0.000000  -29.18677057695163  -0.7468637799162824  13.03184529749491  56.14110385780053  -7.5650360544978765  -13.670334399655125  19.792169383845767  12.609893056856441  4.009643390303895  25.574242858036055  0.000000
0.045  0.000000  0.000000  0.000000  -29.223604831676287  -0.623046247959497  13.115508401114255  56.12363190976654  -7.434323445269952  -13.699499187671835  19.48795280914062  13.051102333900069  4.183899147689001  25.53723381022551  0.000000
0.06  0.000000  0.000000  0.000000  -29.270129272712463  -0.5195989157648533  13.21066964412088  56.0967110208957  -7.377153769768745  -13.723226368653458  19.322363756004528  13.513495212508593  4.160512628015816  25.496561611744408  0.000000
0.075  0.000000  0.000000  0.000000  -29.32841990720909  -0.43461002998113457  13.315523454699626  56.08313154567533  -7.377912591945004  -13.746580139879828  19.275320880025944  14.003404943547  3.976714572151209  25.44877632395191  0.000000
0.09  0.000000  0.000000  0.000000  -29.388149631079784  -0.3614852051132065  13.43173670539589  56.06975748109025  -7.41977392613845  -13.768046321071033  19.307742653987674  14.509656532341134  3.670016942258031  25.40068586916425  0.000000
0.105  0.000000  0.000000  0.000000  -29.44784246768517  -0.2976201763379408  13.556226861241948  56.06279309021365  -7.491630848186352  -13.789603124771356  19.401221947323638  15.036593552764186  3.2613921480916077  25.346629210728096  0.000000
0.12  0.000000  0.000000  0.000000  -29.508133275501187  -0.241927827275051  13.686764203739173  56.061705469133415  -7.580064558115871  -13.812471895077408  19.53471181455157  15.583898365080215  2.7743164196184553  25.28937558300502  0.000000
0.135  0.000000  0.000000  0.000000  -29.570902813975803  -0.1926663826897773  13.82202280961735  56.064775218382835  -7.676433274079723  -13.835943849915346  19.685730497210677  16.153296816483078  2.2344402950566296  25.228247333976405  0.000000
0.15  0.000000  0.000000  0.000000  -29.635871663583305  -0.14924903383655191  13.960856166088293  56.07325000039913  -7.772862162969326  -13.862947686055918  19.846563110743933  16.745399583040683  1.651871844093527  25.163741388187557  0.000000
0.16499999999999998  0.000000  0.000000  0.000000  -29.703715770121978  -0.11088983899572569  14.10427193886747  56.08588458420001  -7.865592298593685  -13.892737472156416  20.000788527365525  17.36029707896703  1.0484354363779955  25.094949176916572  0.000000
0.18  0.000000  0.000000  0.000000  -29.772155240525706  -0.0763349997767272  14.25145381175028  56.10319465392194  -7.950588523746968  -13.927197257046435  20.14914499601346  17.997185163691597  0.42475307172402144  25.022653980421314  0.000000
0.195  0.000000  0.000000  0.000000  -29.842392297031385  -0.04415243599957165  14.403927172829748  56.124626121809186  -8.027578424082712  -13.964603700635902  20.284266686891197  18.655893998614033  -0.20701791365265407  24.946615227192318  0.000000
0.21  0.000000  0.000000  0.000000  -29.91282823939036  -0.012982233933234121  14.560833629796894  56.150736640640986  -8.095408494562157  -14.00522563937868  20.410340994121228  19.33586283032272  -0.8494808518903191  24.867210336873246  0.000000
0.22499999999999998  0.000000  0.000000  0.000000  -29.984975708509136  0.018273037012231787  14.723318684205184  56.18121701818299  -8.154624339993932  -14.04757128076029  20.52392465259165  20.036747605296643  -1.4949962104030274  24.784955111771136  0.000000
0.24  0.000000  0.000000  0.000000  -30.057770706723346  0.05047726952038917  14.890661553037345  56.216374412768545  -8.204678085333715  -14.091757026389365  20.627711068498293  20.7576947980228  -2.1442543917344987  24.700428073755607  0.000000
0.255  0.000000  0.000000  0.000000  -30.132948444212428  0.0842662858887184  15.06373156119109  56.25600874362997  -8.245914221498664  -14.136604797541017  20.719445621176792  21.497904604296224  -2.7914866094184987  24.613884976416113  0.000000
0.27  0.000000  0.000000  0.000000  -30.209606175289622  0.12020172113764323  15.241682349334093  56.300541814762155  -8.277921966145728  -14.181948930106207  20.800937008360894  22.256125264649125  -3.436251171913174  24.525399987938716  0.000000
0.285  0.000000  0.000000  0.000000  -30.28922549341574  0.15869758827703714  15.425097237437653  56.34991827592729  -8.300782296554333  -14.226762824039824  20.870790885437213  23.030952056495547  -4.074041285108948  24.435127050265287  0.000000
0.3  0.000000  0.000000  0.000000  -30.370645284781148  0.20015849556098367  15.612917634579656  56.40446726985837  -8.314036265928955  -14.270684411897973  20.93056422795473  23.820548885739864  -4.704391053008987  24.34299506624001  0.000000
0.315  0.000000  0.000000  0.000000  -30.454894208736466  0.2449199258016732  15.805381917222762  56.464207020683595  -8.317514203152806  -14.312769521357929  20.97979232079059  24.622911744506197  -5.324211489986878  24.249008722222886  0.000000
0.32999999999999996  0.000000  0.000000  0.000000  -30.5400010347029  0.2934452999451848  16.00115667836893  56.529237368607  -8.31064280386103  -14.352528118303324  21.01980525256332  25.435409595299532  -5.933006570852657  24.1530107825438  0.000000
0.345  0.000000  0.000000  0.000000  -30.625894486266706  0.3462680406724933  16.200145429865877  56.59933232229043  -8.293050661551076  -14.389061194327013  21.05052725582957  26.255108999542028  -6.528417458379629  24.054833031053267  0.000000
0.36  0.000000  0.000000  0.000000  -30.70953601427091  0.40405280451309666  16.40077237831905  56.6740485682792  -8.264108493600926  -14.421729171929586  21.07302788314845  27.078358202654723  -7.110020246516917  23.954094979478757  0.000000
0.375  0.000000  0.000000  0.000000  -30.791031696076903  0.4674760296707758  16.602824095515945  56.7524020580064  -8.223390410735886  -14.449120637375524  21.087871265668866  27.901513724615175  -7.676618477938048  23.850558544790566  0.000000
0.39  0.000000  0.000000  0.000000  -30.869242959518736  0.5373091131375299  16.804724205141433  56.83316287771295  -8.170080281545006  -14.469283694751583  21.09694175554159  28.72100140819571  -8.228839081519668  23.744078725496642  0.000000
0.40499999999999997  0.000000  0.000000  0.000000  -30.945505798644557  0.6140511289062773  17.006197763424414  56.916101238319705  -8.102674141589887  -14.480725078074924  21.10145861160316  29.53448182396372  -8.766449063153132  23.634622219709225  0.000000
0.42  0.000000  0.000000  0.000000  -31.01781777823488  0.698561102882679  17.20495523923407  57.00282397691608  -8.018868053933916  -14.482934026791716  21.102676472247847  30.340907092397448  -9.289919156740323  23.521673684322018  0.000000
0.435  0.000000  0.000000  0.000000  -31.088178421269387  0.7915065587127291  17.40069644273176  57.095008260934534  -7.917185104602752  -14.47486651980834  21.100894737623907  31.140538973634893  -9.798320770436323  23.404986675422744  0.000000
0.44999999999999996  0.000000  0.000000  0.000000  -31.158216037962514  0.8925355280620756  17.59225278043646  57.193768982389614  -7.796525704512052  -14.45494581480144  21.09659244022301  31.933855509809565  -10.291220358644763  23.284671255154297  0.000000
0.46499999999999997  0.000000  0.000000  0.000000  -31.231031227321644  1.0015226007760178  17.77986732971381  57.30013310668462  -7.655928546641675  -14.421797161636837  21.09015528017011  32.72089815848641  -10.76879610938974  23.160580430745416  0.000000
